# xmcd
#
# Track frame offsets:
#	150
#	12391
#	24545
#	37127
#	50620
#	62673
#	75762
#	87442
#	100949
#	115972
#	128092
#	140603
#	152538
#	164826
#	176058
#	190162
#	211569
#	228305
#	237856
#	251021
#	265503
#	279448
#	292155
#	302253
#	310927
#
# Disc length: 4160 seconds
#
# Revision: 1
# Processed by: cddbd v1.5.2PL0 Copyright (c) Steve Scherf et al.
# Submitted via: EZCDAudioConverter 2.1.7.1
#
DISCID=55103e19
DTITLE=V/A - Eccentric Soul: The Nickel and Penny Labels
DYEAR=2011
DGENRE=
TTITLE0=Jerry Townes - Just Say The Word
TTITLE1=Little Ben and The Cheers - Never More
TTITLE2=The Voices - Fall In Love Again
TTITLE3=Jerry Townes - You Are My Sunshine
TTITLE4=The Matta Baby - Do The Pearl, Girl (Part 2)
TTITLE5=The Norvells - Why Do You Want To Make Me Sad
TTITLE6=The Voices - Forever Is A Long, Long Time
TTITLE7=Little Ben and The Cheers - (I'm Not Ready To) Settle Down
TTITLE8=Jerry Townes - Three Sides To A Triangle
TTITLE9=Little Ben and The Cheers - Mighty, Mighty Lover
TTITLE10=Jerry Townes - Little Old Lovemaker Me
TTITLE11=Little Ben and The Cheers - I'm Gonna Get Even With You
TTITLE12=The Norvells - Without You
TTITLE13=Jerry Townes - Never More
TTITLE14=The Extentions - This Love Of Mine
TTITLE15=Hallelujah Chorus - I've Got To Find A Way
TTITLE16=South Shore Commission - Shadows
TTITLE17=Richard Terry and Company - Instrumental #1
TTITLE18=Joyce Williams - The First Thing I Do In The Morning
TTITLE19=South Shore Commission - You Got Me Hummin'
TTITLE20=Brothers and Sisters - Don't Let 'Em Tell You
TTITLE21=Sidney Pinchback - This Is The Woman
TTITLE22=South Suburban Electric Strings - Sign Of The Zodiac
TTITLE23=Sidney Barnes - The Ember Song
TTITLE24=Background Players - Untitled
EXTD=
EXTT0=
EXTT1=
EXTT2=
EXTT3=
EXTT4=
EXTT5=
EXTT6=
EXTT7=
EXTT8=
EXTT9=
EXTT10=
EXTT11=
EXTT12=
EXTT13=
EXTT14=
EXTT15=
EXTT16=
EXTT17=
EXTT18=
EXTT19=
EXTT20=
EXTT21=
EXTT22=
EXTT23=
EXTT24=
PLAYORDER=
